<?xml version="1.0" encoding="UTF-8" standalone="no"?>
<!DOCTYPE svg PUBLIC "-//W3C//DTD SVG 1.1//EN" "http://www.w3.org/Graphics/SVG/1.1/DTD/svg11.dtd">
<svg width="100%" height="100%" viewBox="0 0 300 300" version="1.1" xmlns="http://www.w3.org/2000/svg" xmlns:xlink="http://www.w3.org/1999/xlink" xml:space="preserve" xmlns:serif="http://www.serif.com/" style="fill-rule:evenodd;clip-rule:evenodd;stroke-linejoin:round;stroke-miterlimit:2;">
    <g id="counter-clockwise-gear" serif:id="counter-clockwise gear">
        <rect x="0" y="0" width="300" height="300" style="fill-opacity:0;"/>
        <g>
            <g>
                <path d="M153.314,37.527L157.896,54.301C163.692,55.266 169.38,56.79 174.881,58.852L187.237,46.616C193.529,49.477 199.529,52.941 205.152,56.96L200.733,73.778C205.27,77.511 209.434,81.675 213.167,86.212L229.985,81.793C234.004,87.416 237.468,93.416 240.329,99.708L228.093,112.064C230.155,117.565 231.679,123.254 232.644,129.049L249.418,133.631C250.087,140.511 250.087,147.439 249.418,154.318L232.644,158.9C231.679,164.696 230.155,170.384 228.093,175.885L240.329,188.241C237.468,194.533 234.004,200.533 229.985,206.156L213.167,201.737C209.434,206.274 205.27,210.438 200.733,214.171L205.152,230.99C199.529,235.008 193.529,238.472 187.237,241.333L174.881,229.097C169.38,231.159 163.692,232.683 157.896,233.648L153.314,250.423C146.435,251.091 139.506,251.091 132.627,250.423L128.045,233.648C122.249,232.683 116.561,231.159 111.06,229.097L98.704,241.333C92.412,238.472 86.412,235.008 80.789,230.99L85.208,214.171C80.671,210.438 76.507,206.274 72.774,201.737L55.956,206.156C51.937,200.533 48.473,194.533 45.612,188.241L57.848,175.885C55.786,170.384 54.262,164.696 53.297,158.9L36.522,154.318C35.854,147.439 35.854,140.511 36.522,133.631L53.297,129.049C54.262,123.254 55.786,117.565 57.848,112.064L45.612,99.708C48.473,93.416 51.937,87.416 55.956,81.793L72.774,86.212C76.507,81.675 80.671,77.511 85.208,73.778L80.789,56.96C86.412,52.941 92.412,49.477 98.704,46.616L111.06,58.852C116.561,56.79 122.249,55.266 128.045,54.301L132.627,37.527C139.506,36.858 146.435,36.858 153.314,37.527ZM142.97,101.247C166.553,101.247 185.699,120.392 185.699,143.975C185.699,167.557 166.553,186.703 142.97,186.703C119.388,186.703 100.242,167.557 100.242,143.975C100.242,120.392 119.388,101.247 142.97,101.247Z"/>
                <path d="M154.6,37.175L158.958,53.13C164.266,54.065 169.483,55.462 174.546,57.307L186.952,45.022L187.789,45.402C194.159,48.299 200.234,51.806 205.927,55.875L206.675,56.409L202.238,73.295C206.368,76.758 210.187,80.577 213.65,84.707L230.536,80.27L231.07,81.018C235.139,86.711 238.646,92.786 241.543,99.157L241.923,99.993L229.638,112.398C231.483,117.463 232.88,122.679 233.815,127.987L250.657,132.587L250.746,133.502C251.422,140.467 251.422,147.482 250.746,154.447L250.657,155.362L233.815,159.962C232.88,165.271 231.483,170.487 229.638,175.551L241.923,187.956L241.543,188.793C238.646,195.163 235.139,201.238 231.07,206.932L230.536,207.68L213.65,203.243C210.187,207.373 206.368,211.191 202.239,214.654L206.675,231.54L205.927,232.074C200.234,236.143 194.159,239.65 187.789,242.547L186.952,242.927L174.547,230.642C169.483,232.487 164.266,233.885 158.959,234.819L154.358,251.661L153.443,251.75C146.478,252.427 139.463,252.427 132.498,251.75L131.583,251.661L126.983,234.819C121.675,233.885 116.458,232.487 111.395,230.642L98.989,242.927L98.152,242.547C91.782,239.65 85.707,236.143 80.013,232.074L79.266,231.54L83.703,214.654C79.573,211.191 75.754,207.373 72.291,203.243L55.405,207.68L54.871,206.932C50.802,201.238 47.295,195.163 44.398,188.793L44.018,187.956L56.303,175.551C54.458,170.487 53.06,165.271 52.126,159.963L35.284,155.362L35.195,154.447C34.519,147.482 34.519,140.467 35.195,133.502L35.284,132.587L52.126,127.987C53.06,122.679 54.458,117.463 56.303,112.399L44.018,99.993L44.398,99.157C47.295,92.786 50.802,86.711 54.871,81.018L55.405,80.27L72.291,84.707C75.754,80.577 79.573,76.758 83.702,73.295L79.266,56.409L80.013,55.875C85.707,51.806 91.782,48.299 98.152,45.402L98.989,45.022L111.394,57.307C116.458,55.462 121.674,54.065 126.982,53.131L131.583,36.289L132.498,36.2C139.463,35.523 146.478,35.523 153.443,36.2L154.358,36.289L154.6,37.175ZM153.314,37.527C146.435,36.858 139.506,36.858 132.627,37.527L128.045,54.301C122.249,55.266 116.561,56.79 111.06,58.852L98.704,46.616C92.412,49.477 86.412,52.941 80.789,56.96L85.208,73.778C80.671,77.511 76.507,81.675 72.774,86.212L55.956,81.793C51.937,87.416 48.473,93.416 45.612,99.708L57.848,112.064C55.786,117.565 54.262,123.254 53.297,129.049L36.522,133.631C35.854,140.511 35.854,147.439 36.522,154.318L53.297,158.9C54.262,164.696 55.786,170.384 57.848,175.885L45.612,188.241C48.473,194.533 51.937,200.533 55.956,206.156L72.774,201.737C76.507,206.274 80.671,210.438 85.208,214.171L80.789,230.99C86.412,235.008 92.412,238.472 98.704,241.333L111.06,229.097C116.561,231.159 122.249,232.683 128.045,233.648L132.627,250.423C139.506,251.091 146.435,251.091 153.314,250.423L157.896,233.648C163.692,232.683 169.38,231.159 174.881,229.097L187.237,241.333C193.529,238.472 199.529,235.008 205.152,230.99L200.733,214.171C205.27,210.438 209.434,206.274 213.167,201.737L229.985,206.156C234.004,200.533 237.468,194.533 240.329,188.241L228.093,175.885C230.155,170.384 231.679,164.696 232.644,158.9L249.418,154.318C250.087,147.439 250.087,140.511 249.418,133.631L232.644,129.049C231.679,123.254 230.155,117.565 228.093,112.064L240.329,99.708C237.468,93.416 234.004,87.416 229.985,81.793L213.167,86.212C209.434,81.675 205.27,77.511 200.733,73.778L205.152,56.96C199.529,52.941 193.529,49.477 187.237,46.616L174.881,58.852C169.38,56.79 163.692,55.266 157.896,54.301L153.314,37.527ZM142.97,101.247C166.553,101.247 185.699,120.392 185.699,143.975C185.699,167.557 166.553,186.703 142.97,186.703C119.388,186.703 100.242,167.557 100.242,143.975C100.242,120.392 119.388,101.247 142.97,101.247ZM142.97,102.58C120.124,102.58 101.576,121.128 101.576,143.975C101.576,166.821 120.124,185.37 142.97,185.37C165.817,185.37 184.365,166.821 184.365,143.975C184.365,121.128 165.817,102.58 142.97,102.58Z" style="fill:#595959;"/>
                <path d="M148.293,31.501L152.875,48.276C158.67,49.241 164.359,50.765 169.86,52.827L182.216,40.591C188.508,43.452 194.508,46.916 200.131,50.934L195.712,67.753C200.249,71.486 204.413,75.65 208.146,80.187L224.964,75.768C228.983,81.391 232.447,87.391 235.308,93.683L223.072,106.039C225.134,111.54 226.658,117.228 227.623,123.024L244.397,127.606C245.066,134.485 245.066,141.413 244.397,148.293L227.623,152.875C226.658,158.67 225.134,164.359 223.072,169.86L235.308,182.216C232.447,188.508 228.983,194.508 224.964,200.131L208.146,195.712C204.413,200.249 200.249,204.413 195.712,208.146L200.131,224.964C194.508,228.983 188.508,232.447 182.216,235.308L169.86,223.072C164.359,225.134 158.67,226.658 152.875,227.623L148.293,244.397C141.413,245.066 134.485,245.066 127.606,244.397L123.024,227.623C117.228,226.658 111.54,225.134 106.039,223.072L93.683,235.308C87.391,232.447 81.391,228.983 75.768,224.964L80.187,208.146C75.65,204.413 71.486,200.249 67.753,195.712L50.934,200.131C46.916,194.508 43.452,188.508 40.591,182.216L52.827,169.86C50.765,164.359 49.241,158.67 48.276,152.875L31.501,148.293C30.833,141.413 30.833,134.485 31.501,127.606L48.276,123.024C49.241,117.228 50.765,111.54 52.827,106.039L40.591,93.683C43.452,87.391 46.916,81.391 50.934,75.768L67.753,80.187C71.486,75.65 75.65,71.486 80.187,67.753L75.768,50.934C81.391,46.916 87.391,43.452 93.683,40.591L106.039,52.827C111.54,50.765 117.228,49.241 123.024,48.276L127.606,31.501C134.485,30.833 141.413,30.833 148.293,31.501ZM137.949,95.221C161.532,95.221 180.678,114.367 180.678,137.949C180.678,161.532 161.532,180.678 137.949,180.678C114.367,180.678 95.221,161.532 95.221,137.949C95.221,114.367 114.367,95.221 137.949,95.221Z" style="fill:url(#_Linear1);"/>
                <path d="M149.579,31.15L153.937,47.105C159.245,48.039 164.461,49.437 169.525,51.282L181.931,38.997L182.767,39.377C189.138,42.274 195.213,45.781 200.906,49.85L201.654,50.384L197.217,67.27C201.347,70.733 205.166,74.552 208.629,78.681L225.515,74.244L226.049,74.992C230.118,80.686 233.625,86.761 236.522,93.131L236.902,93.968L224.617,106.373C226.462,111.437 227.859,116.653 228.793,121.961L245.636,126.562L245.724,127.477C246.401,134.442 246.401,141.457 245.724,148.422L245.636,149.337L228.794,153.937C227.859,159.245 226.462,164.461 224.617,169.525L236.902,181.931L236.522,182.767C233.625,189.138 230.118,195.213 226.049,200.906L225.515,201.654L208.629,197.217C205.166,201.347 201.347,205.166 197.218,208.629L201.654,225.515L200.906,226.049C195.213,230.118 189.138,233.625 182.767,236.522L181.931,236.902L169.526,224.617C164.462,226.462 159.245,227.859 153.937,228.793L149.337,245.636L148.422,245.724C141.457,246.401 134.442,246.401 127.477,245.724L126.562,245.636L121.962,228.794C116.653,227.859 111.437,226.462 106.373,224.617L93.968,236.902L93.131,236.522C86.761,233.625 80.686,230.118 74.992,226.049L74.244,225.515L78.682,208.629C74.552,205.166 70.733,201.347 67.27,197.218L50.384,201.654L49.85,200.906C45.781,195.213 42.274,189.138 39.377,182.767L38.997,181.931L51.282,169.526C49.437,164.462 48.039,159.245 47.105,153.937L30.263,149.337L30.174,148.422C29.497,141.457 29.497,134.442 30.174,127.477L30.263,126.562L47.105,121.962C48.039,116.653 49.437,111.437 51.282,106.373L38.997,93.968L39.377,93.131C42.274,86.761 45.781,80.686 49.85,74.992L50.384,74.244L67.27,78.682C70.733,74.552 74.552,70.733 78.681,67.27L74.244,50.384L74.992,49.85C80.686,45.781 86.761,42.274 93.131,39.377L93.968,38.997L106.373,51.282C111.437,49.437 116.653,48.039 121.961,47.105L126.562,30.263L127.477,30.174C134.442,29.497 141.457,29.497 148.422,30.174L149.337,30.263L149.579,31.15ZM148.293,31.501C141.413,30.833 134.485,30.833 127.606,31.501L123.024,48.276C117.228,49.241 111.54,50.765 106.039,52.827L93.683,40.591C87.391,43.452 81.391,46.916 75.768,50.934L80.187,67.753C75.65,71.486 71.486,75.65 67.753,80.187L50.934,75.768C46.916,81.391 43.452,87.391 40.591,93.683L52.827,106.039C50.765,111.54 49.241,117.228 48.276,123.024L31.501,127.606C30.833,134.485 30.833,141.413 31.501,148.293L48.276,152.875C49.241,158.67 50.765,164.359 52.827,169.86L40.591,182.216C43.452,188.508 46.916,194.508 50.934,200.131L67.753,195.712C71.486,200.249 75.65,204.413 80.187,208.146L75.768,224.964C81.391,228.983 87.391,232.447 93.683,235.308L106.039,223.072C111.54,225.134 117.228,226.658 123.024,227.623L127.606,244.397C134.485,245.066 141.413,245.066 148.293,244.397L152.875,227.623C158.67,226.658 164.359,225.134 169.86,223.072L182.216,235.308C188.508,232.447 194.508,228.983 200.131,224.964L195.712,208.146C200.249,204.413 204.413,200.249 208.146,195.712L224.964,200.131C228.983,194.508 232.447,188.508 235.308,182.216L223.072,169.86C225.134,164.359 226.658,158.67 227.623,152.875L244.397,148.293C245.066,141.413 245.066,134.485 244.397,127.606L227.623,123.024C226.658,117.228 225.134,111.54 223.072,106.039L235.308,93.683C232.447,87.391 228.983,81.391 224.964,75.768L208.146,80.187C204.413,75.65 200.249,71.486 195.712,67.753L200.131,50.934C194.508,46.916 188.508,43.452 182.216,40.591L169.86,52.827C164.359,50.765 158.67,49.241 152.875,48.276L148.293,31.501ZM137.949,95.221C161.532,95.221 180.678,114.367 180.678,137.949C180.678,161.532 161.532,180.678 137.949,180.678C114.367,180.678 95.221,161.532 95.221,137.949C95.221,114.367 114.367,95.221 137.949,95.221ZM137.949,96.555C115.103,96.555 96.555,115.103 96.555,137.949C96.555,160.796 115.103,179.344 137.949,179.344C160.796,179.344 179.344,160.796 179.344,137.949C179.344,115.103 160.796,96.555 137.949,96.555Z" style="fill:#595959;"/>
                <path d="M177.591,182.621L187.633,173.583L194.662,162.536L198.679,147.473L189.641,148.477L203.7,125.38L224.789,141.448L216.755,143.456L215.751,156.511L211.734,170.57L204.704,181.616L194.662,192.663L185.624,198.688L177.591,182.621Z" style="fill:#bf2d20;"/>
                <path d="M179.599,97.262L170.561,87.22L159.515,80.19L144.451,76.173L145.456,85.211L122.358,71.152L138.426,50.064L140.434,58.097L153.489,59.102L167.548,63.119L178.595,70.148L189.641,80.19L195.667,89.228L179.599,97.262Z" style="fill:#bf2d20;"/>
                <path d="M96.249,95.254L86.207,104.292L79.177,115.338L75.16,130.401L84.198,129.397L70.139,152.494L49.05,136.427L57.084,134.418L58.088,121.363L62.105,107.304L69.135,96.258L79.177,85.211L88.215,79.186L96.249,95.254Z" style="fill:#bf2d20;"/>
                <path d="M95.245,179.608L104.283,189.65L115.329,196.68L130.392,200.697L129.388,191.659L152.485,205.718L136.418,226.806L134.409,218.773L121.354,217.768L107.295,213.751L96.249,206.722L85.202,196.68L79.177,187.642L95.245,179.608Z" style="fill:#bf2d20;"/>
            </g>
            <g>
                <path d="M241.145,205.961C241.914,207.629 242.566,209.341 243.103,211.098C246.224,211.78 249.198,213.011 251.886,214.736C253.508,213.874 255.18,213.124 256.904,212.488C258.891,214.049 260.685,215.843 262.246,217.831C261.61,219.554 260.861,221.226 259.998,222.848C261.723,225.537 262.955,228.51 263.636,231.631C265.393,232.168 267.105,232.821 268.774,233.589C269.075,236.099 269.075,238.635 268.774,241.145C267.105,241.914 265.393,242.566 263.636,243.103C262.955,246.224 261.723,249.198 259.998,251.886C260.861,253.508 261.61,255.18 262.246,256.904C260.685,258.891 258.891,260.685 256.904,262.246C255.18,261.61 253.508,260.861 251.886,259.998C249.198,261.723 246.224,262.955 243.103,263.636C242.566,265.393 241.914,267.105 241.145,268.774C238.635,269.075 236.099,269.075 233.589,268.774C232.821,267.105 232.168,265.393 231.631,263.636C228.51,262.955 225.537,261.723 222.848,259.998C221.226,260.861 219.554,261.61 217.831,262.246C215.843,260.685 214.049,258.891 212.488,256.904C213.124,255.18 213.874,253.508 214.736,251.886C213.011,249.198 211.78,246.224 211.098,243.103C209.341,242.566 207.629,241.914 205.961,241.145C205.659,238.635 205.659,236.099 205.961,233.589C207.629,232.821 209.341,232.168 211.098,231.631C211.78,228.51 213.011,225.537 214.736,222.848C213.874,221.226 213.124,219.554 212.488,217.831C214.049,215.843 215.843,214.049 217.831,212.488C219.554,213.124 221.226,213.874 222.848,214.736C225.537,213.011 228.51,211.78 231.631,211.098C232.168,209.341 232.821,207.629 233.589,205.961C236.099,205.659 238.635,205.659 241.145,205.961ZM237.367,221.56C246.091,221.56 253.174,228.643 253.174,237.367C253.174,246.091 246.091,253.174 237.367,253.174C228.643,253.174 221.56,246.091 221.56,237.367C221.56,228.643 228.643,221.56 237.367,221.56Z"/>
                <path d="M242.356,205.403C243.042,206.892 243.639,208.415 244.146,209.972C246.893,210.652 249.522,211.741 251.944,213.203C253.404,212.46 254.904,211.805 256.442,211.237L257.141,210.979L257.727,211.439C259.799,213.066 261.668,214.935 263.295,217.007L263.755,217.593L263.497,218.292C262.929,219.831 262.274,221.33 261.532,222.789C262.993,225.212 264.082,227.841 264.762,230.588C266.319,231.095 267.842,231.692 269.332,232.378L270.008,232.69L270.097,233.43C270.412,236.045 270.412,238.689 270.097,241.304L270.008,242.044L269.332,242.356C267.842,243.042 266.319,243.639 264.762,244.146C264.083,246.893 262.993,249.522 261.532,251.944C262.274,253.404 262.929,254.904 263.497,256.442L263.755,257.141L263.295,257.727C261.668,259.799 259.799,261.668 257.727,263.295L257.141,263.755L256.442,263.497C254.904,262.929 253.404,262.274 251.945,261.532C249.522,262.993 246.893,264.082 244.146,264.762C243.639,266.319 243.042,267.842 242.356,269.332L242.044,270.008L241.304,270.097C238.689,270.412 236.045,270.412 233.43,270.097L232.69,270.008L232.378,269.332C231.692,267.842 231.095,266.319 230.589,264.762C227.841,264.083 225.212,262.993 222.79,261.532C221.33,262.274 219.831,262.929 218.292,263.497L217.593,263.755L217.007,263.295C214.935,261.668 213.066,259.799 211.439,257.727L210.979,257.141L211.237,256.442C211.805,254.904 212.46,253.404 213.203,251.945C211.741,249.522 210.652,246.893 209.972,244.146C208.415,243.639 206.892,243.042 205.403,242.356L204.726,242.044L204.637,241.304C204.322,238.689 204.322,236.045 204.637,233.43L204.726,232.69L205.403,232.378C206.892,231.692 208.415,231.095 209.972,230.589C210.652,227.841 211.741,225.212 213.203,222.79C212.46,221.33 211.805,219.831 211.237,218.292L210.979,217.593L211.439,217.007C213.066,214.935 214.935,213.066 217.007,211.439L217.593,210.979L218.292,211.237C219.831,211.805 221.33,212.46 222.789,213.203C225.212,211.741 227.841,210.652 230.588,209.972C231.095,208.415 231.692,206.892 232.378,205.403L232.69,204.726L233.43,204.637C236.045,204.322 238.689,204.322 241.304,204.637L242.044,204.726L242.356,205.403ZM241.145,205.961C238.635,205.659 236.099,205.659 233.589,205.961C232.821,207.629 232.168,209.341 231.631,211.098C228.51,211.78 225.537,213.011 222.848,214.736C221.226,213.874 219.554,213.124 217.831,212.488C215.843,214.049 214.049,215.843 212.488,217.831C213.124,219.554 213.874,221.226 214.736,222.848C213.011,225.537 211.78,228.51 211.098,231.631C209.341,232.168 207.629,232.821 205.961,233.589C205.659,236.099 205.659,238.635 205.961,241.145C207.629,241.914 209.341,242.566 211.098,243.103C211.78,246.224 213.011,249.198 214.736,251.886C213.874,253.508 213.124,255.18 212.488,256.904C214.049,258.891 215.843,260.685 217.831,262.246C219.554,261.61 221.226,260.861 222.848,259.998C225.537,261.723 228.51,262.955 231.631,263.636C232.168,265.393 232.821,267.105 233.589,268.774C236.099,269.075 238.635,269.075 241.145,268.774C241.914,267.105 242.566,265.393 243.103,263.636C246.224,262.955 249.198,261.723 251.886,259.998C253.508,260.861 255.18,261.61 256.904,262.246C258.891,260.685 260.685,258.891 262.246,256.904C261.61,255.18 260.861,253.508 259.998,251.886C261.723,249.198 262.955,246.224 263.636,243.103C265.393,242.566 267.105,241.914 268.774,241.145C269.075,238.635 269.075,236.099 268.774,233.589C267.105,232.821 265.393,232.168 263.636,231.631C262.955,228.51 261.723,225.537 259.998,222.848C260.861,221.226 261.61,219.554 262.246,217.831C260.685,215.843 258.891,214.049 256.904,212.488C255.18,213.124 253.508,213.874 251.886,214.736C249.198,213.011 246.224,211.78 243.103,211.098C242.566,209.341 241.914,207.629 241.145,205.961ZM237.367,221.56C246.091,221.56 253.174,228.643 253.174,237.367C253.174,246.091 246.091,253.174 237.367,253.174C228.643,253.174 221.56,246.091 221.56,237.367C221.56,228.643 228.643,221.56 237.367,221.56ZM237.367,222.894C229.379,222.894 222.894,229.379 222.894,237.367C222.894,245.355 229.379,251.84 237.367,251.84C245.355,251.84 251.84,245.355 251.84,237.367C251.84,229.379 245.355,222.894 237.367,222.894Z" style="fill:#595959;"/>
                <path d="M237.076,201.938C237.907,203.613 238.62,205.337 239.216,207.11C242.246,207.787 245.136,208.984 247.758,210.648C249.432,209.815 251.155,209.1 252.928,208.503C254.886,210.046 256.654,211.815 258.197,213.773C257.6,215.545 256.885,217.268 256.052,218.943C257.716,221.565 258.913,224.455 259.591,227.485C261.363,228.08 263.088,228.793 264.763,229.624C265.057,232.1 265.057,234.601 264.763,237.076C263.088,237.907 261.363,238.62 259.591,239.216C258.913,242.246 257.716,245.136 256.052,247.758C256.885,249.432 257.6,251.155 258.197,252.928C256.654,254.886 254.886,256.654 252.928,258.197C251.155,257.6 249.432,256.885 247.758,256.052C245.136,257.716 242.246,258.913 239.216,259.591C238.62,261.363 237.907,263.088 237.076,264.763C234.601,265.057 232.1,265.057 229.624,264.763C228.793,263.088 228.08,261.363 227.485,259.591C224.455,258.913 221.565,257.716 218.943,256.052C217.268,256.885 215.545,257.6 213.773,258.197C211.815,256.654 210.046,254.886 208.503,252.928C209.1,251.155 209.815,249.432 210.648,247.758C208.984,245.136 207.787,242.246 207.11,239.216C205.337,238.62 203.613,237.907 201.938,237.076C201.644,234.601 201.644,232.1 201.938,229.624C203.613,228.793 205.337,228.08 207.11,227.485C207.787,224.455 208.984,221.565 210.648,218.943C209.815,217.268 209.1,215.545 208.503,213.773C210.046,211.815 211.815,210.046 213.773,208.503C215.545,209.1 217.268,209.815 218.943,210.648C221.565,208.984 224.455,207.787 227.485,207.11C228.08,205.337 228.793,203.613 229.624,201.938C232.1,201.644 234.601,201.644 237.076,201.938ZM233.35,217.475C242.112,217.475 249.225,224.589 249.225,233.35C249.225,242.112 242.112,249.225 233.35,249.225C224.589,249.225 217.475,242.112 217.475,233.35C217.475,224.589 224.589,217.475 233.35,217.475Z" style="fill:url(#_Linear2);"/>
                <path d="M238.271,201.345C239.019,202.853 239.674,204.398 240.236,205.982C242.909,206.654 245.468,207.714 247.833,209.129C249.351,208.407 250.907,207.777 252.502,207.24L253.186,207.009L253.753,207.456C255.793,209.064 257.637,210.907 259.244,212.948L259.691,213.515L259.461,214.199C258.923,215.793 258.294,217.35 257.572,218.867C258.986,221.232 260.046,223.792 260.718,226.464C262.302,227.027 263.848,227.682 265.355,228.43L266.002,228.75L266.087,229.467C266.393,232.047 266.393,234.654 266.087,237.233L266.002,237.95L265.355,238.271C263.848,239.019 262.302,239.674 260.719,240.236C260.046,242.909 258.986,245.468 257.572,247.833C258.294,249.351 258.923,250.907 259.461,252.502L259.691,253.186L259.244,253.753C257.637,255.793 255.793,257.637 253.753,259.244L253.186,259.691L252.502,259.461C250.907,258.923 249.351,258.294 247.834,257.572C245.468,258.986 242.909,260.046 240.237,260.718C239.674,262.302 239.018,263.848 238.271,265.355L237.95,266.002L237.233,266.087C234.654,266.393 232.047,266.393 229.467,266.087L228.75,266.002L228.43,265.355C227.682,263.848 227.027,262.302 226.464,260.719C223.792,260.046 221.232,258.986 218.868,257.572C217.35,258.294 215.793,258.923 214.199,259.461L213.515,259.691L212.948,259.244C210.907,257.637 209.064,255.793 207.456,253.753L207.009,253.186L207.24,252.502C207.777,250.907 208.407,249.351 209.129,247.834C207.715,245.468 206.654,242.909 205.982,240.237C204.398,239.674 202.853,239.018 201.345,238.271L200.698,237.95L200.613,237.233C200.307,234.654 200.307,232.047 200.613,229.467L200.698,228.75L201.345,228.43C202.853,227.682 204.398,227.027 205.982,226.464C206.654,223.792 207.714,221.232 209.129,218.868C208.407,217.35 207.777,215.793 207.24,214.199L207.009,213.515L207.456,212.948C209.064,210.907 210.907,209.064 212.948,207.456L213.515,207.009L214.199,207.24C215.793,207.777 217.35,208.407 218.867,209.129C221.232,207.715 223.792,206.654 226.464,205.982C227.027,204.398 227.682,202.853 228.43,201.345L228.75,200.698L229.467,200.613C232.047,200.307 234.654,200.307 237.233,200.613L237.95,200.698L238.271,201.345ZM237.076,201.938C234.601,201.644 232.1,201.644 229.624,201.938C228.793,203.613 228.08,205.337 227.485,207.11C224.455,207.787 221.565,208.984 218.943,210.648C217.268,209.815 215.545,209.1 213.773,208.503C211.815,210.046 210.046,211.815 208.503,213.773C209.1,215.545 209.815,217.268 210.648,218.943C208.984,221.565 207.787,224.455 207.11,227.485C205.337,228.08 203.613,228.793 201.938,229.624C201.644,232.1 201.644,234.601 201.938,237.076C203.613,237.907 205.337,238.62 207.11,239.216C207.787,242.246 208.984,245.136 210.648,247.758C209.815,249.432 209.1,251.155 208.503,252.928C210.046,254.886 211.815,256.654 213.773,258.197C215.545,257.6 217.268,256.885 218.943,256.052C221.565,257.716 224.455,258.913 227.485,259.591C228.08,261.363 228.793,263.088 229.624,264.763C232.1,265.057 234.601,265.057 237.076,264.763C237.907,263.088 238.62,261.363 239.216,259.591C242.246,258.913 245.136,257.716 247.758,256.052C249.432,256.885 251.155,257.6 252.928,258.197C254.886,256.654 256.654,254.886 258.197,252.928C257.6,251.155 256.885,249.432 256.052,247.758C257.716,245.136 258.913,242.246 259.591,239.216C261.363,238.62 263.088,237.907 264.763,237.076C265.057,234.601 265.057,232.1 264.763,229.624C263.088,228.793 261.363,228.08 259.591,227.485C258.913,224.455 257.716,221.565 256.052,218.943C256.885,217.268 257.6,215.545 258.197,213.773C256.654,211.815 254.886,210.046 252.928,208.503C251.155,209.1 249.432,209.815 247.758,210.648C245.136,208.984 242.246,207.787 239.216,207.11C238.62,205.337 237.907,203.613 237.076,201.938ZM233.35,217.475C242.112,217.475 249.225,224.589 249.225,233.35C249.225,242.112 242.112,249.225 233.35,249.225C224.589,249.225 217.475,242.112 217.475,233.35C217.475,224.589 224.589,217.475 233.35,217.475ZM233.35,218.809C225.324,218.809 218.809,225.324 218.809,233.35C218.809,241.376 225.324,247.892 233.35,247.892C241.376,247.892 247.892,241.376 247.892,233.35C247.892,225.324 241.376,218.809 233.35,218.809Z" style="fill:#595959;"/>
            </g>
        </g>
    </g>
    <defs>
        <linearGradient id="_Linear1" x1="0" y1="0" x2="1" y2="0" gradientUnits="userSpaceOnUse" gradientTransform="matrix(-171.721519,-171.721519,85.860759,-85.860759,247.911392,185.649789)"><stop offset="0" style="stop-color:#b3c4cd;stop-opacity:1"/><stop offset="0.22" style="stop-color:#b3c4cd;stop-opacity:1"/><stop offset="0.44" style="stop-color:#f0f4f7;stop-opacity:1"/><stop offset="0.61" style="stop-color:#b3c4cd;stop-opacity:1"/><stop offset="0.78" style="stop-color:#b3c4cd;stop-opacity:1"/><stop offset="1" style="stop-color:#f0f4f7;stop-opacity:1"/></linearGradient>
        <linearGradient id="_Linear2" x1="0" y1="0" x2="1" y2="0" gradientUnits="userSpaceOnUse" gradientTransform="matrix(-50.790872,-50.790872,25.395436,-25.395436,265.87419,247.458786)"><stop offset="0" style="stop-color:#b3c4cd;stop-opacity:1"/><stop offset="0.22" style="stop-color:#b3c4cd;stop-opacity:1"/><stop offset="0.44" style="stop-color:#f0f4f7;stop-opacity:1"/><stop offset="0.61" style="stop-color:#b3c4cd;stop-opacity:1"/><stop offset="0.78" style="stop-color:#b3c4cd;stop-opacity:1"/><stop offset="1" style="stop-color:#f0f4f7;stop-opacity:1"/></linearGradient>
    </defs>
</svg>
